<svg xmlns="http://www.w3.org/2000/svg" viewBox="0 0 31.2 23.2"><style type="text/css"> .st0{fill:none;stroke:#000000;stroke-width:0.3;stroke-linecap:round;stroke-linejoin:round;stroke-miterlimit:10;} </style><path class="st0" d="M1.5 7.6l6.8-6.1h14.2M1.5 7.6L1.3 7.8 1.5 7.6l6.8-6.1M29.9 8.1L29.7 8l-0.4-0.4 -0.8 0.2 -1.2-0.2L26 8l-1.5 0.1L22.9 8 21 7.6l-2.2 0.2 -2.3-0.2L14.4 8l-2 0.1L10.5 8 8.6 7.6 6.7 7.8 5 7.6 3.8 8l-1 0.1L2 8 1.5 7.6M1.9 9.2L1.5 8.8 1.3 8.7l0.2 0.1L1.9 9.2 2.7 9l1.2 0.2 1.3-0.4 1.5-0.1 1.7 0.1 1.8 0.4L12.5 9l2.4 0.2 2-0.4 2-0.1 1.9 0.1 1.8 0.4L24.5 9l1.7 0.2 1.3-0.4 1-0.1 0.8 0.1 0.4 0.4M29.3 7.6l-6.8-6.1M27.3 7.6l-5.5-6.1M21 7.6l-3-6.1M16.5 7.6V1.5M8.6 7.6l3-6.1M5 7.6l5.5-6.1"/><path class="st0" d="M1.9 9.2l10.2 9 3.6 3.3M26.2 9.2L18 18.5l-2.3 3 3.7-2.9 10.5-9.5v-1M18 18.5l4.6-9.3M14.8 9.2v9.3l0.9 3M14.8 18.5l-4.6-9.3M3.9 9.2l6.8 7.5 0.8 1M1.3 8.7V7.8"/></svg>