<svg xmlns="http://www.w3.org/2000/svg" viewBox="0 0 13.19 13.31"><defs><style> .cls-1{isolation:isolate;}.cls-2{fill:#b8b7b6;}</style></defs><title> bullet</title><path d="M6.6601562-0.009765625A6.6599998 6.6599998 0 0 0 0 6.6503906 6.6599998 6.6599998 0 0 0 6.6601562 13.310547 6.6599998 6.6599998 0 0 0 13.320312 6.6503906 6.6599998 6.6599998 0 0 0 6.6601562-0.009765625zM6.6601562 0.99023438A5.6599998 5.6599998 0 0 1 12.320312 6.6503906 5.6599998 5.6599998 0 0 1 6.6601562 12.310547 5.6599998 5.6599998 0 0 1 1 6.6503906 5.6599998 5.6599998 0 0 1 6.6601562 0.99023438z" style="fill:#b8b7b6;stroke-width:1.00819969"/></svg>