<svg class="st0" xmlns="http://www.w3.org/2000/svg" viewBox="0 0 42.3 41.6"><style type="text/css"> .st0{fill:#000000;} </style><path d="M12 40.3c-4.2-0.3-7.5-2.1-9.4-6.1 -0.8-1.7-1.2-3.5-1.2-5.4 0-5.5-0.1-11.1 0-16.6 0-2.3 0.5-4.5 1.7-6.5 1.7-2.8 4.2-4.4 7.4-4.9 1.7-0.3 3.4-0.4 5.1-0.4 4.6 0 9.2 0 13.8 0.1C31.8 0.5 34 1 36 2.2c2.8 1.7 4.5 4.3 4.9 7.5 0.3 2.2 0.4 4.5 0.4 6.7 0 4 0 8.1-0.1 12.1 0 2.3-0.5 4.6-1.7 6.6 -1.7 2.8-4.3 4.5-7.5 4.9 -2.3 0.3-4.6 0.3-6.9 0.4C23.9 40.5 15.1 40.5 12 40.3zM37.8 15.4c0-1.6-0.1-3.2-0.3-4.7 -0.4-3.1-2-5.3-5.1-6.1 -1.2-0.3-2.5-0.4-3.8-0.5C25.4 4 22.3 4 19.1 4c-2.5 0-5 0.1-7.5 0.3 -3.1 0.3-5.3 2-6.1 5.1C5.2 10.6 5 11.9 5 13.2c-0.1 3.1-0.1 6.3-0.1 9.4 0 2.5 0.1 5 0.3 7.5 0.3 3.7 2.8 6.1 6.5 6.5 1.5 0.2 3 0.3 4.5 0.3 4.7 0 9.3-0.1 14-0.2 1.7 0 3.3-0.5 4.6-1.6 1.9-1.5 2.6-3.6 2.8-5.9C37.8 26.3 37.8 17.1 37.8 15.4z"/><path d="M21.4 30.7c-5.7 0-10.3-4.6-10.3-10.2 0-5.8 4.5-10.4 10.3-10.4 5.8 0 10.3 4.5 10.3 10.3C31.6 26.2 27.1 30.7 21.4 30.7zM21.3 27.1c3.7 0.1 6.7-2.9 6.8-6.6 0.1-3.7-2.9-6.7-6.6-6.8 -3.7-0.1-6.7 2.9-6.8 6.6C14.6 24 17.6 27.1 21.3 27.1z"/><path d="M32.1 7.3c1.3 0 2.4 1.1 2.3 2.5 0 1.3-1.1 2.4-2.4 2.4 -1.3 0-2.4-1.1-2.4-2.4C29.6 8.4 30.7 7.3 32.1 7.3z"/></svg>