<svg xmlns="http://www.w3.org/2000/svg" viewBox="0 0 22.5 20.7"><style type="text/css"> .p1{fill:#b8b7b6;} </style><path class="p1" d="M4.9 12.8C3.3 12.8 2 11.5 2 9.9 2 8.3 3.3 7 4.9 7s2.9 1.3 2.9 2.9C7.8 11.5 6.5 12.8 4.9 12.8zM4.9 8.4c-0.8 0-1.5 0.7-1.5 1.5s0.7 1.5 1.5 1.5 1.5-0.7 1.5-1.5S5.7 8.4 4.9 8.4z"/><path class="p1" d="M17.3 18.7c-1.6 0-2.9-1.3-2.9-2.9s1.3-2.9 2.9-2.9 2.9 1.3 2.9 2.9S18.9 18.7 17.3 18.7zM17.3 14.3c-0.8 0-1.5 0.7-1.5 1.5 0 0.8 0.7 1.5 1.5 1.5s1.5-0.7 1.5-1.5C18.8 15 18.1 14.3 17.3 14.3z"/><path class="p1" d="M17.3 6.8c-1.6 0-2.9-1.3-2.9-2.9s1.3-2.9 2.9-2.9 2.9 1.3 2.9 2.9S18.9 6.8 17.3 6.8zM17.3 2.5c-0.8 0-1.5 0.7-1.5 1.5 0 0.8 0.7 1.5 1.5 1.5s1.5-0.7 1.5-1.5C18.8 3.1 18.1 2.5 17.3 2.5z"/><path class="p1" d="M6.7 8.4l8.7-4.2L16 5.6 7.1 9.8 6.7 8.4z"/><path class="p1" d="M16 14.5l-9.2-4.4L6 11.4l9.2 4.4L16 14.5z"/></svg>