<svg class="st0" xmlns="http://www.w3.org/2000/svg" viewBox="0 0 43.7 32.4"><style type="text/css"> .st0{fill:#000000;} </style><path d="M42.5 7.3c0 0-0.4-3-1.7-4.4 -1.6-1.7-3.4-1.8-4.2-1.9 -5.9-0.4-14.8-0.4-14.8-0.4h0c0 0-8.9 0-14.8 0.4C6.3 1.2 4.5 1.2 2.9 2.9 1.6 4.3 1.2 7.3 1.2 7.3s-0.4 3.6-0.4 7.1v3.3c0 3.6 0.4 7.1 0.4 7.1s0.4 3 1.7 4.4C4.5 31 6.6 31 7.5 31.1c3.4 0.3 14.3 0.4 14.3 0.4s8.9 0 14.8-0.5c0.8-0.1 2.6-0.1 4.2-1.9 1.3-1.3 1.7-4.4 1.7-4.4s0.4-3.6 0.4-7.1v-3.3C42.9 10.9 42.5 7.3 42.5 7.3zM17.5 21.8l0-12.4 11.4 6.2L17.5 21.8z"/></svg>